<?xml version="1.0" encoding="UTF-8" standalone="no"?>
<svg
   version="1.1"
   height="547.88367"
   width="567.42065"
   id="svg1"
   xmlns="http://www.w3.org/2000/svg"
   xmlns:svg="http://www.w3.org/2000/svg">
   <defs
      id="defs1" />
   <path
      style="fill:#ffffff;stroke:none"
      d="m 567.42066,166.5402 -20.6752,1.5315 c -21.441,-24.24874 -29.8643,-95.973975 -156.213,-81.935226 4.5945,307.320926 139.3665,339.737666 130.9432,402.784396 -3.063,35.73499 -31.3957,57.68649 -62.0257,58.96274 -96.7397,-3.31825 -92.4005,-133.75097 -122.52,-462.512886 H 212.1127 C 218.7492,201.25419 236.872,317.13766 238.914,430.72388 237.3825,506.27786 191.4375,546.60736 130.9433,547.11786 31.3958,550.43611 -1.9482422e-7,434.29738 -1.9482422e-7,384.77889 L 21.441,384.7789 c 2.042,40.83999 21.6963,70.19373 63.5573,71.98048 114.0967,1.5315 51.3052,-200.62645 50.5395,-369.857156 L -1.9482422e-7,87.667974 0.76579981,1.1382375 C 564.11286,-1.5906195 492.60806,-12.634815 567.42066,166.5402 Z"
      id="path1" />
</svg>